<?xml version="1.0" encoding="UTF-8" standalone="no"?>
<!-- Generator: Adobe Illustrator 19.2.1, SVG Export Plug-In . SVG Version: 6.00 Build 0)  -->

<svg
   xmlns:dc="http://purl.org/dc/elements/1.1/"
   xmlns:cc="http://creativecommons.org/ns#"
   xmlns:rdf="http://www.w3.org/1999/02/22-rdf-syntax-ns#"
   xmlns:svg="http://www.w3.org/2000/svg"
   xmlns="http://www.w3.org/2000/svg"
   xmlns:sodipodi="http://sodipodi.sourceforge.net/DTD/sodipodi-0.dtd"
   xmlns:inkscape="http://www.inkscape.org/namespaces/inkscape"
   version="1.1"
   id="Layer_1"
   x="0px"
   y="0px"
   viewBox="0 0 64 64"
   style="enable-background:new 0 0 64 64;"
   xml:space="preserve"
   sodipodi:docname="home_icon.svg"
   inkscape:version="0.92.3 (2405546, 2018-03-11)"><metadata
   id="metadata3741"><rdf:RDF><cc:Work
       rdf:about=""><dc:format>image/svg+xml</dc:format><dc:type
         rdf:resource="http://purl.org/dc/dcmitype/StillImage" /></cc:Work></rdf:RDF></metadata><defs
   id="defs3739" /><sodipodi:namedview
   pagecolor="#ffffff"
   bordercolor="#666666"
   borderopacity="1"
   objecttolerance="10"
   gridtolerance="10"
   guidetolerance="10"
   inkscape:pageopacity="0"
   inkscape:pageshadow="2"
   inkscape:window-width="1920"
   inkscape:window-height="1001"
   id="namedview3737"
   showgrid="false"
   inkscape:zoom="12.625"
   inkscape:cx="18.613861"
   inkscape:cy="32"
   inkscape:window-x="-9"
   inkscape:window-y="-9"
   inkscape:window-maximized="1"
   inkscape:current-layer="Layer_1" />
<style
   type="text/css"
   id="style3728">
	.st0{fill:#E9E9EA;}
</style>
<g
   id="g3734">
	<g
   id="g3732">
		<path
   class="st0"
   d="M32.2,13.2c0.1,0,0.3,0.1,0.4,0.2l17.2,18.1c0.3,0.3,0.1,0.9-0.4,0.9h-3.3c-0.3,0-0.5,0.2-0.5,0.5V49    c0,0.3-0.2,0.5-0.5,0.5h-7.4c-0.3,0-0.5-0.2-0.5-0.5V36.4c0-1.1-0.9-2-2-2h-5.7c-1.1,0-2,0.9-2,2V49c0,0.3-0.2,0.5-0.5,0.5h-7.4    c-0.3,0-0.5-0.2-0.5-0.5V32.9c0-0.3-0.2-0.5-0.5-0.5H15c-0.5,0-0.7-0.6-0.4-0.9l17.2-18.1C31.9,13.3,32,13.2,32.2,13.2 M32.2,12.2    c-0.4,0-0.8,0.2-1.1,0.5L13.9,30.8c-0.4,0.4-0.5,1.1-0.3,1.7c0.2,0.6,0.8,0.9,1.4,0.9h2.8V49c0,0.9,0.7,1.5,1.5,1.5h7.4    c0.9,0,1.5-0.7,1.5-1.5V36.4c0-0.6,0.5-1,1-1H35c0.6,0,1,0.5,1,1V49c0,0.9,0.7,1.5,1.5,1.5H45c0.9,0,1.5-0.7,1.5-1.5V33.4h2.8    c0.6,0,1.2-0.4,1.4-0.9c0.2-0.6,0.1-1.2-0.3-1.7L33.3,12.7C33,12.4,32.6,12.2,32.2,12.2L32.2,12.2z"
   id="path3730" />
	</g>
</g>
<path
   style="fill:#ffffff;stroke-width:0.07920792"
   d="m 19.212412,49.297227 c -0.109672,-0.156579 -0.123303,-1.083057 -0.123303,-8.380901 0,-6.957397 -0.01708,-8.228236 -0.112321,-8.358613 -0.105341,-0.144197 -0.239366,-0.155227 -2.156506,-0.177471 -2.259128,-0.02621 -2.325985,-0.04126 -2.324453,-0.523212 6.89e-4,-0.216645 1.016135,-1.313452 8.733507,-9.433268 5.879567,-6.186172 8.792373,-9.196609 8.915283,-9.214107 0.251209,-0.03576 0.313566,0.02797 9.673249,9.886193 7.166887,7.548631 8.083122,8.541592 8.083122,8.760001 0,0.477415 -0.08264,0.497578 -2.148033,0.524115 -1.438693,0.01849 -1.897638,0.04896 -1.998397,0.132705 -0.120036,0.09976 -0.130893,0.783999 -0.131965,8.316831 -9.19e-4,6.458069 -0.02252,8.250344 -0.101336,8.406144 l -0.100169,0.198019 -3.95807,0.01901 c -2.408,0.01156 -4.004599,-0.01056 -4.076881,-0.05649 -0.103566,-0.06581 -0.123894,-0.937272 -0.158416,-6.791285 l -0.0396,-6.71579 -0.230597,-0.416185 c -0.126828,-0.228901 -0.349615,-0.506964 -0.495081,-0.617916 -0.5671,-0.432548 -0.554633,-0.431246 -4.127513,-0.431246 h -3.313725 l -0.411716,0.205167 c -0.226444,0.112842 -0.519615,0.335614 -0.651491,0.49505 -0.481792,0.582478 -0.472847,0.439105 -0.472847,7.579111 0,6.204253 -0.0068,6.51412 -0.144851,6.639089 -0.130688,0.118272 -0.529089,0.131088 -4.074717,0.131088 h -3.929866 z"
   id="path3743"
   inkscape:connector-curvature="0" /></svg>